<svg width="70" height="70" viewBox="0 0 70 70" fill="none" xmlns="http://www.w3.org/2000/svg">
<path fill-rule="evenodd" clip-rule="evenodd" d="M0 35C0 15.67 15.67 0 35 0C54.33 0 70 15.67 70 35C70 54.33 54.33 70 35 70C15.67 70 0 54.33 0 35ZM13.0797 28.6361L13.7868 27.929L26.5147 15.201L32.1716 20.8579L19.4437 33.5858L25.1005 39.2427L30.0503 34.2929L35.7071 39.9498L30.7574 44.8995L42.0711 56.2132L39.9498 58.3346C37.2161 61.0682 32.7839 61.0682 30.0503 58.3346L11.6655 39.9498C8.93182 37.2161 8.93181 32.784 11.6655 30.0503L13.0797 28.6361ZM56.2132 42.0711L56.9203 41.364L58.3345 39.9498C61.0682 37.2161 61.0682 32.784 58.3345 30.0503L39.9498 11.6655C37.2161 8.93185 32.7839 8.93185 30.0503 11.6655L27.9289 13.7868L39.2426 25.1005L34.2929 30.0503L39.9498 35.7071L44.8995 30.7574L50.5564 36.4143L37.8284 49.1422L43.4853 54.799L56.2132 42.0711Z" fill="black"/>
</svg>
